<svg xmlns="http://www.w3.org/2000/svg" xmlns:xlink="http://www.w3.org/1999/xlink" width="3000" height="645" viewBox="0 0 3000 645"><defs><clipPath id="a"><rect width="3000" height="345" transform="translate(-373.004 36)" fill="none"/></clipPath><clipPath id="b"><rect width="839" height="356" transform="translate(-392.003 -36)" fill="#fff" stroke="#707070" stroke-width="1"/></clipPath><clipPath id="c"><rect width="3000" height="298.89" transform="translate(-357.997 3.1)" fill="#f2f2f2"/></clipPath></defs><g transform="translate(0 -285)"><rect width="3000" height="345" transform="translate(0 285)" fill="#26d7ff"/><rect width="3000" height="242" transform="translate(0 688)" fill="#f2debc"/><rect width="3000" height="100" transform="translate(0 630)" fill="#f8f1d7"/><g transform="translate(373.003 249)" clip-path="url(#a)"><path d="M-357.231-5617.926c-47.332,0-101.059-1.285-159.69-3.824-57.351-2.482-119.512-6.167-184.757-10.95-64.622-4.738-132.255-10.553-201.018-17.284-69.06-6.759-139.2-14.438-208.471-22.823-70.539-8.538-140.224-17.814-207.118-27.569-68.9-10.048-135.166-20.654-196.958-31.523-64.18-11.29-124.065-22.959-177.992-34.685-56.344-12.25-106.885-24.716-150.217-37.051-.992-39.468-.449-184.965.182-300.072.687-125.281,1.614-241.789,1.622-242.764h.036c-.012-2.926-.026-5.812-.036-8,36.358-38.235,171.583-64.991,270.321-84.526l.028-.005c31.066-6.147,57.9-11.456,77.345-16.246,21.307-5.248,31.19-9.3,31.1-12.753,17.645,6.115,35.8,11.577,55.519,16.7,17.573,4.565,35.98,8.75,56.273,12.8,37.741,7.523,76.522,13.42,114.025,19.121l.019,0c36.383,5.531,74,11.252,110.923,18.48,19.882,3.893,37.957,7.9,55.258,12.239,19.427,4.877,37.378,10.051,54.878,15.817-53.969,8.731-114.409,19.4-190.21,33.57-72.214,13.5-153.424,29.278-230.415,44.281-17.022-.723-32.482-1.787-47.262-3.255-13.15-1.306-25.455-2.9-37.618-4.883-22.566-3.675-41.026-8.116-58.879-12.412l-.029-.007c-10.341-2.488-21.034-5.061-32.309-7.425-12.63-2.649-24.745-4.767-37.036-6.473-25.755-3.573-51.765-6.688-77.307-9.258-20.5-2.063-40.765-3.782-60.227-5.11-33.838-2.31-53.544-2.641-54.366-2.654.363,84.55.055,195.686-.218,293.738v.177c-.309,111.235-.575,207.3.182,237.4,83.838,23.932,191.871,46.719,321.1,67.727,59.645,9.7,123.979,19.024,191.213,27.726,64.31,8.323,131.9,16.155,200.89,23.28,66.413,6.859,134.542,13.107,202.494,18.569,66.072,5.312,132.024,9.884,196.023,13.592,63.085,3.656,124.144,6.465,181.48,8.35,57.355,1.887,110.8,2.843,158.862,2.843,15.274,0,30.164-.1,44.256-.29,46.232-.477,93.344-1.925,140.026-4.305,46.18-2.354,93.237-5.686,139.863-9.9,46.119-4.171,93.087-9.322,139.6-15.31,45.988-5.92,92.833-12.827,139.233-20.527,45.869-7.613,92.557-16.209,138.766-25.553,45.708-9.242,92.205-19.466,138.2-30.389,45.5-10.8,91.771-22.591,137.529-35.033,45.257-12.3,91.269-25.589,136.759-39.485-1.605-62.359-.548-91.223.473-119.136v-.009c1.025-28.006,2.085-56.966.465-119.737-22.451-11.374-45.191-23.258-69.266-35.839l-.079-.042-.059-.031c-40.135-20.974-81.637-42.662-125-63.612-23.466-11.338-45.154-21.343-66.3-30.587-23.57-10.3-46.689-19.723-68.715-28-24.144-9.071-48.047-17.174-71.045-24.083-24.764-7.438-49.423-13.778-73.294-18.842-25.407-5.39-50.8-9.52-75.462-12.277-12.86-1.438-25.82-2.536-38.52-3.263-13.027-.747-26.158-1.125-39.031-1.125-18.117,0-36.348.748-54.188,2.224-18.4,1.521-36.934,3.862-55.1,6.957-68.792,11.72-138.577,21-207.416,27.583-80.24,7.672-158.33,11.562-232.1,11.563-23.707,0-47.306-.406-70.141-1.207-23.693-.831-47.218-2.111-69.922-3.8-23.522-1.754-46.792-4-69.162-6.675-23.148-2.767-45.981-6.071-67.863-9.819-22.612-3.874-44.825-8.328-66.025-13.239-21.878-5.068-43.292-10.764-63.647-16.932-20.977-6.355-41.409-13.386-60.729-20.9-19.89-7.732-39.159-16.19-57.272-25.139-13-6.424-26.6-12.512-40.4-18.1-13.091-5.293-26.815-10.312-40.792-14.918,37.7-6.1,71.783-11.178,104.188-15.527,33.984-4.56,65.3-8.209,95.733-11.156,62.468-6.05,120.543-8.99,177.544-8.99,54.094,0,108.623,2.628,166.7,8.036,56.064,5.221,116.96,13.185,186.167,24.347,17.778,2.867,36.095,5.385,54.44,7.482,17.8,2.036,36.162,3.739,54.58,5.063,17.8,1.279,36.2,2.245,54.7,2.871,17.811.6,36.254.906,54.815.906,33.351,0,67.452-.936,104.25-2.862,32.808-1.717,67.015-4.187,104.577-7.55,69.83-6.251,141.038-14.734,209.9-22.937,69.373-8.264,141.108-16.809,211.752-23.121,38.026-3.4,72.687-5.893,105.962-7.628,37.348-1.948,72-2.895,105.941-2.895.026,0,2.823-.071,7.858-.071,18.969,0,68.889,1,122.616,10.224,17.941,3.081,37.219,8.353,58.937,16.117,20.521,7.335,40.967,16.062,60.005,24.4,7.582,3.321,13.325,6.016,18.391,8.393,14.477,6.793,21.742,10.2,43.784,14.617,15.281,3.06,33.9,4.707,46.822,5.549,13.334.869,23.5,1.084,24.614,1.105h.019l1.006,319.945c-.208.094-23.552,10.584-58.654,27.295-32.108,15.286-80.539,38.887-128.923,64.514-54.4,28.813-97.679,54.273-128.636,75.674-18.382,12.708-32.567,24.106-42.161,33.879a79.347,79.347,0,0,0-11.683,14.525c-2.713,4.583-4.041,8.746-3.948,12.372-45.512,13.87-91.525,27.123-136.763,39.394-45.784,12.418-92.057,24.179-137.531,34.953-46.005,10.9-92.5,21.1-138.2,30.321-46.22,9.325-92.907,17.9-138.766,25.5-46.387,7.683-93.23,14.576-139.231,20.485-46.514,5.977-93.481,11.119-139.6,15.283-46.63,4.21-93.686,7.536-139.86,9.888-46.7,2.378-93.815,3.826-140.023,4.3C-335.032-5618-346.005-5617.926-357.231-5617.926Z" transform="translate(1468.646 6486.47)" fill="#00d0ff"/><path d="M-357.231-5617.426c-47.336,0-101.07-1.285-159.712-3.824-57.338-2.482-119.505-6.167-184.772-10.951-64.627-4.738-132.263-10.553-201.03-17.284-69.056-6.759-139.2-14.438-208.483-22.824-70.527-8.537-140.216-17.813-207.13-27.571-68.914-10.05-135.185-20.657-196.972-31.526-64.195-11.292-124.086-22.963-178.012-34.688-56.355-12.252-106.906-24.721-150.248-37.059l-.354-.1-.009-.368c-.992-39.478-.449-184.979.182-300.088.692-126.248,1.613-241.725,1.622-242.765l0-.5h.03v-.007c-.012-2.749-.024-5.429-.034-7.49v-.2l.139-.146a86.628,86.628,0,0,1,18.109-13.892,208.391,208.391,0,0,1,25.749-12.814c9.293-3.937,20-7.914,31.822-11.82,10.91-3.6,23.129-7.268,36.318-10.887,22.594-6.2,48.7-12.476,79.8-19.186,27.137-5.854,54.578-11.283,78.788-16.073l.031-.006c31.056-6.145,57.88-11.452,77.319-16.24,10.729-2.643,18.417-4.941,23.5-7.027,6.013-2.466,7.244-4.2,7.218-5.228l-.018-.722.682.237c17.636,6.112,35.784,11.57,55.481,16.687,17.559,4.562,35.957,8.745,56.245,12.79,37.757,7.527,76.518,13.419,114,19.118l.023,0c36.371,5.529,73.982,11.247,110.94,18.483,19.89,3.895,37.974,7.9,55.284,12.245,19.4,4.87,37.324,10.035,54.8,15.79,37.627-6.087,71.673-11.16,104.082-15.51,33.991-4.561,65.312-8.211,95.752-11.158,62.48-6.051,120.571-8.993,177.592-8.993,54.111,0,108.655,2.629,166.75,8.039,56.078,5.222,116.985,13.187,186.2,24.352,17.784,2.867,36.093,5.384,54.418,7.479,17.788,2.035,36.144,3.738,54.559,5.062,17.778,1.278,36.177,2.244,54.686,2.87,17.8.6,36.235.906,54.8.906,33.345,0,67.437-.936,104.224-2.861,32.795-1.717,67-4.187,104.558-7.549,69.81-6.25,141-14.73,209.85-22.931l.1-.012c69.357-8.262,141.075-16.8,211.7-23.115,38.028-3.4,72.694-5.894,105.98-7.629,37.356-1.948,72.015-2.9,105.96-2.9h.013c.5-.012,3.253-.071,7.852-.071,18.981,0,68.934,1,122.7,10.231,17.971,3.086,37.277,8.365,59.021,16.139,20.535,7.34,40.991,16.071,60.037,24.412,7.6,3.329,13.339,6.022,18.4,8.4,14.439,6.775,21.687,10.177,43.67,14.579,15.258,3.055,33.848,4.7,46.757,5.541,13.415.875,23.487,1.083,24.591,1.1h.03l.478.019,0,.479,1.007,320.27-.3.133c-.234.1-23.755,10.68-58.644,27.29-32.108,15.286-80.535,38.885-128.9,64.5-54.382,28.8-97.644,54.253-128.585,75.643-18.356,12.69-32.517,24.068-42.088,33.818a78.872,78.872,0,0,0-11.61,14.429c-2.664,4.5-3.969,8.574-3.878,12.1l.01.38-.364.111c-45.5,13.866-91.52,27.122-136.778,39.4-45.8,12.422-92.076,24.183-137.547,34.956-46.013,10.9-92.515,21.1-138.215,30.325-46.22,9.325-92.913,17.9-138.783,25.5-46.394,7.685-93.244,14.578-139.249,20.488C48.4-5641.142,1.431-5636-44.688-5631.835c-46.623,4.209-93.685,7.537-139.88,9.889-46.7,2.378-93.817,3.826-140.044,4.3C-335.044-5617.5-346.019-5617.426-357.231-5617.426Zm-1485.731-186.588c43.242,12.3,93.653,24.728,149.833,36.942,53.912,11.722,113.791,23.391,177.972,34.681,61.777,10.867,128.039,21.472,196.944,31.521,66.906,9.757,136.587,19.032,207.106,27.567,69.276,8.386,139.412,16.063,208.46,22.822,68.758,6.73,136.387,12.545,201.005,17.282,65.257,4.784,127.414,8.468,184.742,10.949,58.627,2.539,112.347,3.825,159.668,3.823,11.207,0,22.178-.073,32.608-.217,46.215-.477,93.319-1.925,140.005-4.3,46.182-2.352,93.231-5.678,139.841-9.886,46.107-4.163,93.067-9.3,139.577-15.281,45.993-5.909,92.831-12.8,139.213-20.483,45.858-7.595,92.54-16.172,138.749-25.494,45.689-9.218,92.18-19.418,138.182-30.318,45.461-10.771,91.728-22.529,137.516-34.948,45.128-12.241,91.013-25.456,136.389-39.28,0-3.63,1.355-7.751,4.022-12.257a79.819,79.819,0,0,1,11.757-14.621c9.616-9.795,23.825-21.214,42.233-33.939,30.973-21.413,74.27-46.883,128.686-75.7,48.384-25.627,96.825-49.233,128.942-64.524,32.786-15.608,55.539-25.891,58.368-27.166l-1-319.133c-2.366-.052-11.865-.295-24.168-1.1-12.939-.843-31.577-2.491-46.888-5.557-22.1-4.427-29.387-7.845-43.9-14.655-5.058-2.374-10.791-5.064-18.38-8.388-19.03-8.334-39.466-17.057-59.973-24.387-21.689-7.754-40.94-13.019-58.853-16.095-53.691-9.221-103.576-10.217-122.532-10.217-4.588,0-7.327.059-7.829.071H775.3c-33.929,0-68.574.946-105.915,2.894-33.274,1.735-67.928,4.23-105.943,7.627-70.615,6.309-142.326,14.851-211.675,23.112l-.1.012c-68.855,8.2-140.055,16.682-209.879,22.934-37.575,3.364-71.788,5.834-104.6,7.551-36.8,1.927-70.914,2.863-104.276,2.863-18.575,0-37.023-.305-54.832-.907-18.522-.626-36.934-1.593-54.724-2.872-18.429-1.325-36.8-3.029-54.6-5.065-18.34-2.1-36.663-4.616-54.463-7.486-69.193-11.16-130.078-19.123-186.134-24.343-58.063-5.406-112.577-8.034-166.657-8.034-56.988,0-115.047,2.94-177.5,8.988-30.428,2.946-61.736,6.595-95.715,11.154-31.852,4.275-65.291,9.25-102.154,15.2h0c13.322,4.434,26.392,9.236,38.881,14.287,13.822,5.591,27.427,11.684,40.438,18.111,18.1,8.943,37.357,17.4,57.232,25.121,19.307,7.506,39.727,14.533,60.693,20.885,20.336,6.162,41.739,11.856,63.615,16.923,21.194,4.909,43.4,9.361,66,13.233,21.867,3.746,44.692,7.049,67.838,9.815,22.371,2.675,45.633,4.92,69.14,6.673,22.7,1.693,46.217,2.973,69.9,3.8,22.839.8,46.432,1.207,70.123,1.207,73.757,0,151.831-3.89,232.053-11.56,68.833-6.583,138.605-15.861,207.38-27.578,18.182-3.1,36.736-5.44,55.145-6.963,17.847-1.477,36.093-2.226,54.229-2.226,12.892,0,26.033.378,39.06,1.125,12.709.728,25.678,1.827,38.547,3.265,24.685,2.76,50.091,6.893,75.511,12.285,23.882,5.067,48.555,11.41,73.334,18.853,23.008,6.913,46.922,15.019,71.077,24.094,22.036,8.28,45.163,17.7,68.74,28.009,21.155,9.247,42.849,19.254,66.322,30.594,43.364,20.953,84.867,42.641,125,63.616l.177.093c24.063,12.575,46.791,24.453,69.228,35.82l.267.135.008.3c1.621,62.785.56,91.752-.465,119.767v.024c-1.021,27.9-2.077,56.757-.473,119.092l.01.38-.363.111c-45.489,13.9-91.507,27.183-136.774,39.49-45.759,12.442-92.035,24.23-137.545,35.037-45.987,10.922-92.489,21.147-138.215,30.393-46.208,9.343-92.9,17.941-138.783,25.556-46.421,7.7-93.272,14.611-139.251,20.53-46.531,5.991-93.505,11.142-139.617,15.313-46.631,4.218-93.694,7.55-139.883,9.9-46.681,2.38-93.8,3.829-140.047,4.306-14.045.192-28.937.29-44.261.29-48.083,0-101.538-.957-158.879-2.843s-118.4-4.694-181.492-8.35c-64.022-3.709-129.978-8.283-196.035-13.593-67.963-5.463-136.1-11.711-202.505-18.57-69-7.125-136.59-14.958-200.9-23.281-67.224-8.7-131.563-18.029-191.229-27.729-129.241-21.01-237.293-43.8-321.155-67.739l-.354-.1-.009-.367c-.757-30.113-.49-126.18-.182-237.415v-.176c.165-59.277.342-123.335.377-183.417-.265,38.939-.557,84.924-.818,132.444C-1843.4-5988.954-1843.942-5844-1842.962-5804.015Zm1.8-11.519c83.774,23.891,191.666,46.639,320.687,67.613,59.655,9.7,123.983,19.025,191.2,27.724,64.3,8.322,131.889,16.154,200.877,23.278,66.4,6.859,134.527,13.105,202.482,18.568,66.05,5.31,132,9.883,196.012,13.591,63.082,3.656,124.137,6.465,181.467,8.35s110.773,2.842,158.846,2.842c15.319,0,30.207-.1,44.249-.29,46.235-.477,93.34-1.925,140.008-4.3,46.175-2.354,93.226-5.686,139.843-9.9,46.1-4.169,93.061-9.319,139.58-15.308C120.057-5689.29,166.9-5696.2,213.3-5703.9c45.871-7.613,92.552-16.209,138.748-25.549,45.715-9.243,92.206-19.466,138.182-30.386,45.5-10.8,91.765-22.589,137.513-35.028,45.136-12.271,91.02-25.518,136.38-39.37-1.591-62.1-.537-90.911.483-118.774v-.025c1.023-27.953,2.081-56.858.472-119.4-22.357-11.329-45-23.164-68.973-35.69l-.177-.093c-40.129-20.971-81.625-42.656-124.975-63.6-23.461-11.335-45.143-21.337-66.287-30.579-23.56-10.3-46.671-19.715-68.69-27.988-24.134-9.067-48.026-17.167-71.013-24.073-24.752-7.435-49.4-13.771-73.254-18.832-25.388-5.386-50.761-9.514-75.414-12.27-12.851-1.437-25.8-2.534-38.493-3.261-13.008-.745-26.13-1.124-39-1.124-18.109,0-36.327.748-54.147,2.223-18.381,1.52-36.905,3.859-55.06,6.952-68.8,11.721-138.6,21-207.452,27.587-80.253,7.673-158.36,11.564-232.148,11.565-23.7,0-47.308-.406-70.159-1.208-23.7-.831-47.229-2.111-69.941-3.805-23.522-1.754-46.8-4-69.184-6.677-23.163-2.769-46-6.074-67.889-9.823-22.617-3.875-44.841-8.331-66.053-13.244-21.9-5.072-43.322-10.772-63.679-16.94-20.99-6.36-41.435-13.395-60.765-20.91-19.9-7.737-39.184-16.2-57.312-25.157-12.988-6.416-26.571-12.5-40.369-18.081-13.038-5.272-26.713-10.274-40.644-14.868-53.952,8.729-114.354,19.391-190.078,33.548-72.2,13.5-153.413,29.276-230.411,44.28l-.058.011-.059,0c-17.038-.724-32.507-1.789-47.29-3.256-13.16-1.308-25.475-2.906-37.65-4.888-22.585-3.678-41.054-8.122-58.915-12.418l-.029-.008h0l-.029-.007c-10.328-2.485-21.008-5.054-32.265-7.415-12.62-2.647-24.723-4.762-37-6.467-25.765-3.575-51.769-6.688-77.288-9.256-20.491-2.062-40.749-3.781-60.211-5.108-31.37-2.141-50.463-2.58-53.83-2.644.36,84.514.052,195.387-.22,293.231v.179C-1841.639-5941.773-1841.9-5846.039-1841.159-5815.533Zm260.936-500.5c17.843,4.293,36.293,8.732,58.842,12.4,12.153,1.978,24.448,3.574,37.587,4.879,14.747,1.464,30.179,2.527,47.175,3.25,76.983-15,158.177-30.775,230.36-44.271,74.839-13.992,134.718-24.569,188.194-33.243-16.871-5.507-34.2-10.475-52.893-15.168-17.293-4.341-35.36-8.342-55.233-12.233-36.939-7.232-74.54-12.949-110.9-18.477l-.023,0c-37.494-5.7-76.267-11.594-114.044-19.125-20.308-4.049-38.724-8.236-56.3-12.8-19.506-5.067-37.5-10.469-54.976-16.509-.474,1.769-2.974,3.532-7.755,5.492-5.133,2.1-12.867,4.418-23.644,7.073-19.462,4.794-46.3,10.1-77.367,16.251l-.031.006c-24.2,4.789-51.64,10.217-78.768,16.07-31.085,6.706-57.17,12.977-79.746,19.172-13.172,3.615-25.375,7.272-36.269,10.872-11.8,3.9-22.477,7.864-31.745,11.791a207.49,207.49,0,0,0-25.624,12.75,86.1,86.1,0,0,0-17.761,13.579c.01,2.038.022,4.642.033,7.31,3.313.063,22.444.5,53.9,2.646,19.473,1.329,39.741,3.049,60.243,5.112,25.531,2.568,51.548,5.684,77.326,9.26,12.3,1.708,24.427,3.827,37.07,6.479,11.271,2.363,21.958,4.935,32.294,7.421Z" transform="translate(1468.646 6486.47)" fill="rgba(0,0,0,0)"/><g clip-path="url(#b)"><path d="M2288.73,149.625h0s62.163-1.58,130.473,10.152c39.142,6.723,78.378,22.75,118.943,40.517,29.738,13.024,32.588,17.085,62.175,23.01s71.456,6.656,71.456,6.656l1.006,319.945s-375.537,168.738-374,228.258c-363.587,110.8-736.447,176.265-1109.97,180.125C815.293,963.4,36.015,876.988-330.027,772.8c-1.921-76.413,1.8-542.836,1.8-542.836s77.688,1.171,191.937,17.023c74.275,10.306,100.964,29.7,213.13,34.454,582.97-113.6,758.27-144.479,1150.961-81.142,348.284,56.175,705.306-50.669,1060.926-50.669" transform="translate(-44.78 -89.959)" fill="#c4f3ff"/><path d="M1156.2,959c-47.33,0-101.065-1.286-159.712-3.825-57.36-2.483-119.526-6.167-184.773-10.951-64.642-4.739-132.279-10.554-201.031-17.284C541.613,920.183,471.469,912.5,402.2,904.12c-70.528-8.537-140.217-17.813-207.131-27.571C126.156,866.5,59.885,855.892-1.9,845.023c-64.187-11.291-124.079-22.962-178.012-34.688-56.353-12.253-106.9-24.721-150.248-37.059l-.354-.1-.009-.368c-.992-39.479-.449-184.98.181-300.088.683-124.715,1.613-241.6,1.622-242.764l0-.5.5.008c.194,0,19.82.319,53.151,2.568,19.573,1.321,39.975,3.04,60.639,5.11,25.829,2.587,52.142,5.733,78.208,9.35,12.292,1.706,24.418,3.825,37.069,6.478,11.292,2.368,22,4.944,32.352,7.435,17.845,4.293,36.3,8.733,58.841,12.4,12.147,1.978,24.442,3.574,37.587,4.879,14.76,1.466,30.192,2.529,47.174,3.25,90.409-17.617,178.092-34.638,256.869-49.2,83.128-15.366,149.1-26.656,207.61-35.531,64.975-9.855,122.182-16.9,174.888-21.544,55.387-4.878,107.317-7.25,158.745-7.25h.013c54.1,0,108.649,2.63,166.751,8.04,56.078,5.222,116.986,13.187,186.2,24.351,17.759,2.864,36.068,5.381,54.418,7.48,17.781,2.033,36.137,3.736,54.56,5.06,17.792,1.279,36.191,2.245,54.686,2.87,17.79.6,36.227.906,54.8.907h.041c33.33,0,67.407-.936,104.187-2.86,32.788-1.716,66.991-4.185,104.562-7.548,69.81-6.25,141.025-14.733,209.9-22.937,69.379-8.264,141.119-16.81,211.759-23.122,38.035-3.4,72.7-5.894,105.976-7.629,37.357-1.948,72.013-2.9,105.95-2.9h0c.028,0,2.865-.071,7.874-.071,18.981,0,68.933,1,122.7,10.231,17.969,3.086,37.275,8.365,59.021,16.139,20.55,7.346,41,16.075,60.038,24.413,7.585,3.322,13.329,6.018,18.4,8.4,14.44,6.777,21.688,10.178,43.675,14.581,15.257,3.055,33.848,4.7,46.757,5.541,13.992.912,24.5,1.1,24.609,1.1l.49.008v.49l1.007,320.269-.3.133c-.235.105-23.871,10.737-58.648,27.293-32.1,15.28-80.513,38.874-128.9,64.5-54.38,28.8-97.642,54.252-128.583,75.642-38.549,26.649-57.92,46.954-57.574,60.351l.01.38-.364.111c-45.51,13.869-91.529,27.125-136.778,39.4-45.782,12.418-92.059,24.179-137.547,34.956-46.019,10.9-92.521,21.106-138.215,30.324-46.222,9.325-92.915,17.905-138.783,25.5-46.392,7.683-93.243,14.577-139.249,20.488-46.529,5.978-93.5,11.121-139.615,15.284-46.631,4.21-93.693,7.537-139.88,9.89-46.7,2.378-93.817,3.827-140.044,4.3C1178.371,958.931,1167.4,959,1156.2,959ZM-329.536,772.415c43.245,12.3,93.655,24.728,149.833,36.943,53.92,11.723,113.8,23.391,177.972,34.68,61.778,10.867,128.04,21.472,196.945,31.521,66.906,9.757,136.587,19.033,207.107,27.568,69.26,8.383,139.4,16.061,208.461,22.822,68.745,6.729,136.373,12.544,201.007,17.282,65.236,4.783,127.393,8.467,184.743,10.949,58.632,2.538,112.353,3.825,159.668,3.823,11.192,0,22.161-.073,32.6-.216,46.215-.478,93.318-1.925,140.005-4.3,46.173-2.352,93.223-5.678,139.841-9.887,46.1-4.162,93.061-9.3,139.577-15.28,45.995-5.91,92.833-12.8,139.213-20.483,45.856-7.595,92.537-16.172,138.749-25.495,45.683-9.216,92.175-19.417,138.183-30.317,45.478-10.775,91.745-22.534,137.516-34.949,45.12-12.239,91.005-25.453,136.389-39.28,0-3.629,1.354-7.751,4.022-12.258a79.855,79.855,0,0,1,11.756-14.62,208.6,208.6,0,0,1,18.36-16.31c6.883-5.505,14.915-11.436,23.873-17.629,30.974-21.412,74.27-46.883,128.686-75.7,48.406-25.639,96.838-49.24,128.942-64.523,32.683-15.559,55.531-25.888,58.367-27.167l-1-319.132c-2.232-.049-11.858-.295-24.167-1.1-12.939-.843-31.578-2.493-46.888-5.558-22.105-4.427-29.39-7.846-43.9-14.657-5.063-2.376-10.8-5.068-18.374-8.385-19.022-8.331-39.452-17.052-59.973-24.387-21.691-7.754-40.943-13.018-58.854-16.1-53.687-9.221-103.571-10.216-122.527-10.216-5,0-7.821.07-7.849.071h-.013c-33.923,0-68.567.947-105.911,2.894-33.263,1.735-67.916,4.23-105.939,7.627-70.625,6.31-142.358,14.855-211.729,23.119-68.878,8.205-140.1,16.689-209.925,22.94-37.583,3.365-71.8,5.835-104.6,7.551-36.8,1.926-70.894,2.862-104.239,2.862h-.041c-18.583,0-37.031-.305-54.832-.907-18.508-.625-36.92-1.592-54.724-2.872-18.436-1.325-36.807-3.03-54.6-5.065-18.365-2.1-36.69-4.619-54.464-7.486-69.194-11.16-130.08-19.123-186.136-24.342C983.518,171.038,929,168.41,874.931,168.41c-51.4,0-103.305,2.37-158.67,7.246-52.686,4.64-109.872,11.685-174.827,21.537-58.5,8.873-124.46,20.162-207.578,35.525C255.065,247.282,167.37,264.306,76.94,281.927l-.058.011-.059,0c-17.025-.722-32.494-1.788-47.289-3.257-13.167-1.308-25.482-2.906-37.65-4.887-22.581-3.677-41.052-8.121-58.915-12.419-10.347-2.49-21.045-5.064-32.323-7.429-12.629-2.649-24.732-4.764-37-6.466-26.051-3.615-52.349-6.758-78.163-9.345-20.652-2.069-41.042-3.787-60.6-5.107-30.36-2.049-49.337-2.493-52.605-2.557-.067,8.518-.958,121.729-1.618,242.257C-329.974,587.476-330.516,732.426-329.536,772.415Z" transform="translate(-44.78 -89.959)" fill="rgba(0,0,0,0)"/><path d="M2242.957,441.576c3.238,125.391-4.151,114.006-.937,238.882-363.574,111.067-736.443,176.659-1109.974,180.507-373.523,5.1-1130.287-57.311-1496.315-161.8-1.455-57.838.875-360.914,0-539.316,59.044-62.092,379.292-94,378.8-113.53,171.1,59.291,355.969,43.142,528.091,128.171,272.7,134.715,690.894,105.141,964.278,58.567,285.881-48.7,536.471,107.4,736.061,208.517" transform="translate(-8.734 -27.85)" fill="#0cf"/><path d="M1087.785,861.754c-48.065,0-101.518-.955-158.872-2.841s-118.415-4.695-181.487-8.35c-64.017-3.709-129.971-8.282-196.031-13.592-67.931-5.46-136.063-11.708-202.5-18.57-69.015-7.128-136.609-14.961-200.9-23.282-67.244-8.7-131.583-18.032-191.231-27.729-129.244-21.011-237.3-43.8-321.166-67.743l-.353-.1-.009-.367c-.757-30.11-.49-126.2-.181-237.462.282-101.394.6-216.316.181-301.865v-.2l.139-.146c36.467-38.35,171.785-65.123,270.59-84.672,31.071-6.148,57.9-11.457,77.348-16.246A188.925,188.925,0,0,0,6.123,51.842c6.582-2.606,7.931-4.434,7.9-5.508l-.018-.721.682.236c17.638,6.112,35.786,11.57,55.48,16.687,17.556,4.561,35.954,8.744,56.246,12.789,37.712,7.519,76.5,13.415,114,19.118,25.007,3.8,50.865,7.734,76.3,12.125,28.54,4.928,53.447,9.918,76.145,15.253,27.258,6.408,51.964,13.428,75.53,21.464,12.775,4.356,25.354,9.075,37.388,14.025,12.63,5.195,25.1,10.825,37.059,16.733,18.1,8.941,37.353,17.392,57.228,25.118,19.31,7.507,39.73,14.533,60.693,20.884,20.343,6.163,41.747,11.856,63.617,16.922,21.2,4.909,43.4,9.362,66,13.233,21.872,3.747,44.7,7.05,67.842,9.817,22.368,2.674,45.63,4.92,69.142,6.674,22.686,1.693,46.2,2.973,69.9,3.8,22.826.8,46.418,1.208,70.119,1.208h.057c173.282,0,334.565-21.282,439.375-39.137,18.172-3.1,36.726-5.438,55.145-6.961,17.866-1.478,36.111-2.227,54.23-2.227,12.884,0,26.026.378,39.061,1.125,12.707.728,25.676,1.826,38.546,3.264,24.683,2.759,50.088,6.891,75.509,12.284,23.879,5.065,48.551,11.407,73.33,18.851,23.007,6.911,46.919,15.017,71.071,24.091,22.033,8.278,45.158,17.7,68.734,28,21.157,9.247,42.849,19.254,66.316,30.593,43.385,20.962,84.907,42.662,125.063,63.648,24.111,12.6,46.885,24.5,69.366,35.892l.266.135.008.3c1.621,62.8.561,91.765-.464,119.781-1.021,27.906-2.078,56.763-.473,119.1l.01.38-.364.111c-45.508,13.9-91.525,27.189-136.774,39.491-45.78,12.447-92.057,24.235-137.545,35.037-46.018,10.928-92.52,21.153-138.215,30.392-46.222,9.345-92.915,17.944-138.784,25.556-46.392,7.7-93.243,14.607-139.251,20.53-46.529,5.99-93.5,11.142-139.617,15.313-46.631,4.217-93.695,7.55-139.882,9.9-46.7,2.381-93.819,3.83-140.047,4.306C1117.947,861.656,1103.053,861.754,1087.785,861.754ZM-363.778,698.787C-280,722.68-172.1,745.429-43.08,766.4c59.637,9.7,123.965,19.023,191.2,27.724,64.285,8.32,131.87,16.152,200.877,23.279,66.432,6.861,134.556,13.108,202.48,18.567,66.052,5.309,132,9.882,196.008,13.591,63.064,3.654,124.117,6.463,181.462,8.349s110.785,2.841,158.84,2.841c15.264,0,30.153-.1,44.254-.29,46.216-.476,93.321-1.924,140.007-4.3,46.175-2.354,93.225-5.686,139.843-9.9,46.1-4.169,93.064-9.32,139.58-15.308,46-5.922,92.835-12.827,139.215-20.524,45.857-7.611,92.539-16.207,138.749-25.55,45.684-9.237,92.175-19.459,138.182-30.385,45.478-10.8,91.744-22.585,137.514-35.029,45.117-12.267,91-25.513,136.381-39.372-1.591-62.109-.536-90.918.483-118.783,1.023-27.956,2.081-56.862.471-119.42-22.4-11.351-45.093-23.211-69.111-35.763-40.148-20.982-81.663-42.678-125.034-63.633-23.456-11.333-45.137-21.335-66.282-30.577-23.559-10.3-46.668-19.713-68.685-27.985-24.131-9.067-48.022-17.165-71.007-24.069-24.753-7.436-49.4-13.771-73.25-18.83-25.389-5.386-50.762-9.513-75.412-12.268-12.852-1.436-25.8-2.533-38.493-3.26-13.016-.745-26.138-1.123-39-1.123-18.091,0-36.309.748-54.147,2.223-18.391,1.521-36.915,3.86-55.059,6.951-68.824,11.725-138.62,21.007-207.451,27.589-80.221,7.672-158.315,11.562-232.093,11.562h-.057c-23.713,0-47.316-.407-70.154-1.209-23.71-.832-47.241-2.113-69.94-3.807-23.526-1.755-46.8-4-69.186-6.678-23.161-2.769-46-6.075-67.891-9.824-22.617-3.874-44.841-8.33-66.057-13.244C702.26,232.87,680.834,227.171,660.47,221c-20.987-6.358-41.431-13.393-60.765-20.908-19.9-7.737-39.183-16.2-57.308-25.153-11.94-5.9-24.388-11.519-37-16.705-12.016-4.942-24.575-9.654-37.331-14-23.535-8.025-48.21-15.037-75.436-21.437-22.679-5.331-47.567-10.316-76.087-15.241-25.421-4.39-51.274-8.321-76.277-12.122-37.518-5.7-76.313-11.6-114.048-19.126-20.31-4.049-38.726-8.237-56.3-12.8-19.5-5.067-37.494-10.469-54.976-16.509-.5,1.852-3.222,3.707-8.452,5.777a189.822,189.822,0,0,1-22.946,6.787C-35.92,64.353-62.764,69.664-93.847,75.814c-24.178,4.784-51.581,10.206-78.7,16.056-31.083,6.706-57.171,12.978-79.756,19.174-13.179,3.616-25.389,7.275-36.289,10.876-11.8,3.9-22.492,7.868-31.767,11.8A207.6,207.6,0,0,0-346,146.469a86.079,86.079,0,0,0-17.768,13.58c.419,85.531.1,200.356-.182,301.671C-364.258,572.528-364.524,668.284-363.778,698.787Z" transform="translate(-8.734 -27.85)" fill="rgba(0,0,0,0)"/></g><path d="M-1841.65-5815.153c-1.433-56.984.807-352,.037-531.316,1.685.036,61.469,1.407,174.086,17.032,74.274,10.306,104.612,10.1,255.38,17.816,154.623-27.195,278.554-48.909,384.328-65.018a632.352,632.352,0,0,1,93.056,36.809c272.7,134.715,690.894,105.141,964.278,58.567,285.881-48.7,536.471,107.4,736.061,208.518,3.237,125.39-4.152,114-.938,238.881C401.065-5722.8,28.2-5657.2-345.334-5653.357c-14.2.194-28.986.291-44.255.291C-775.871-5653.064-1489.541-5714.641-1841.65-5815.153Z" transform="translate(1468.646 6486.471)" fill="#00c3ff"/><path d="M-389.589-5652.567c-48.065,0-101.518-.956-158.873-2.841s-118.415-4.7-181.488-8.35c-64.018-3.709-129.972-8.282-196.032-13.592-67.932-5.46-136.064-11.708-202.5-18.569-69.016-7.128-136.609-14.961-200.9-23.282-67.244-8.7-131.584-18.032-191.231-27.729-129.245-21.011-237.3-43.8-321.167-67.743l-.353-.1-.009-.367c-.757-30.114-.49-126.222-.181-237.506.272-98.081.581-209.248.218-293.821l0-.513.513.011c.646.014,16.153.365,45.472,2.672,16.91,1.331,35.14,3.052,54.183,5.115,23.7,2.568,48.764,5.68,74.489,9.25,29.45,4.086,52.209,6.549,78.554,8.5,26.174,1.938,55.363,3.351,99.546,5.49,22.075,1.069,47.092,2.28,77.182,3.82,81-14.247,147.938-25.993,210.429-36.656,69.746-11.9,124.989-20.911,173.855-28.353l.114-.018.11.034c16.134,5.009,31.883,10.521,46.81,16.383,15.895,6.242,31.479,13.124,46.319,20.456,18.1,8.941,37.353,17.392,57.228,25.118,19.31,7.507,39.731,14.533,60.693,20.884,20.343,6.163,41.747,11.856,63.617,16.923,21.2,4.91,43.4,9.362,66,13.233,21.872,3.747,44.7,7.05,67.841,9.817,22.368,2.674,45.631,4.919,69.142,6.674,22.686,1.692,46.2,2.972,69.9,3.8,22.827.8,46.418,1.208,70.119,1.208,173.319,0,334.63-21.284,439.432-39.138,18.172-3.1,36.726-5.438,55.145-6.961,17.865-1.478,36.111-2.227,54.229-2.227,12.884,0,26.026.378,39.061,1.125,12.707.728,25.676,1.826,38.547,3.264,24.683,2.759,50.088,6.891,75.509,12.284,23.879,5.065,48.551,11.408,73.33,18.851,23.008,6.911,46.92,15.017,71.072,24.091,22.033,8.278,45.158,17.7,68.734,28.005,21.157,9.247,42.849,19.254,66.317,30.593,43.386,20.962,84.908,42.663,125.063,63.648,24.11,12.6,46.883,24.5,69.364,35.891l.266.135.008.3c1.621,62.794.56,91.762-.465,119.777-1.022,27.907-2.078,56.764-.473,119.1l.01.38-.364.111c-45.508,13.9-91.525,27.188-136.774,39.491-45.78,12.446-92.056,24.234-137.545,35.037-46.018,10.928-92.52,21.153-138.215,30.392-46.222,9.345-92.915,17.943-138.784,25.556-46.392,7.7-93.243,14.606-139.251,20.529-46.529,5.99-93.5,11.142-139.617,15.313-46.631,4.217-93.695,7.55-139.883,9.9-46.7,2.381-93.818,3.83-140.046,4.306C-359.426-5652.665-374.318-5652.567-389.589-5652.567Zm-1451.57-162.966c83.778,23.893,191.673,46.642,320.7,67.616,59.637,9.7,123.966,19.023,191.2,27.724,64.286,8.32,131.871,16.152,200.878,23.279,66.433,6.86,134.557,13.107,202.481,18.567,66.052,5.309,132,9.881,196.01,13.59,63.064,3.654,124.117,6.463,181.463,8.349s110.785,2.841,158.84,2.841c15.267,0,30.154-.1,44.248-.291,46.216-.476,93.321-1.924,140.008-4.3,46.175-2.354,93.225-5.686,139.843-9.9,46.1-4.169,93.063-9.32,139.58-15.308,46-5.921,92.835-12.827,139.215-20.524,45.857-7.61,92.539-16.207,138.749-25.55,45.684-9.236,92.175-19.459,138.182-30.384,45.478-10.8,91.744-22.585,137.513-35.029,45.117-12.267,91-25.513,136.38-39.371-1.591-62.111-.536-90.92.484-118.786,1.023-27.955,2.081-56.861.472-119.417-22.4-11.351-45.092-23.21-69.109-35.762-40.148-20.982-81.664-42.678-125.035-63.634-23.456-11.333-45.137-21.335-66.282-30.578-23.56-10.3-46.669-19.713-68.685-27.985-24.132-9.067-48.022-17.165-71.008-24.07-24.753-7.436-49.4-13.771-73.25-18.83-25.39-5.386-50.762-9.514-75.413-12.269-12.852-1.437-25.8-2.533-38.493-3.26-13.016-.746-26.139-1.124-39-1.124-18.091,0-36.309.748-54.147,2.224-18.39,1.521-36.915,3.86-55.059,6.951-68.816,11.724-138.613,21.006-207.451,27.588-80.243,7.673-158.349,11.564-232.15,11.564-23.712,0-47.315-.407-70.154-1.208-23.71-.832-47.241-2.112-69.94-3.806-23.526-1.755-46.8-4-69.186-6.678-23.161-2.769-46-6.075-67.891-9.824-22.617-3.875-44.841-8.331-66.057-13.245-21.892-5.07-43.317-10.77-63.681-16.939-20.987-6.358-41.431-13.393-60.765-20.91-19.9-7.736-39.183-16.2-57.308-25.153-14.815-7.319-30.373-14.189-46.242-20.421-14.87-5.84-30.558-11.332-46.631-16.324-48.831,7.438-104.039,16.441-173.723,28.333-62.5,10.666-129.452,22.415-210.48,36.666l-.056.01-.057,0c-30.112-1.541-55.147-2.753-77.235-3.822-44.19-2.139-73.384-3.553-99.571-5.492-26.368-1.953-49.144-4.417-78.617-8.506-25.716-3.568-50.768-6.679-74.46-9.246-19.033-2.062-37.253-3.783-54.154-5.112-26.716-2.1-41.943-2.579-44.9-2.656.36,84.512.052,195.428-.22,293.313C-1841.639-5941.816-1841.9-5846.041-1841.159-5815.533Z" transform="translate(1468.646 6486.471)" fill="rgba(0,0,0,0)"/><path d="M2496.56,791.41c-50.538-98.689-511.908-113.617-623.839-104.477-152.488,5.153-291.052,46.723-457.969,42.632-244.22-2.045-534.311-24.545-677.492-69.545C577.715,621.156,339.206,610.3,117.488,631.383s-221.718,37.072-463.849,144.432c-81.4,65.449-22.7,205.272-25.354,269.774-7.345,178.439,720.057,302.985,806.069,297.778,11.55-.88,23.791,3.518,35.693,5.232q195.374,28.116,391.9,44.948c61.156,5.322,146.859,25.641,203.757,3.705,64.889-24.858,130.112-81.161,180.173-126.349,50.627-45.656,106.81-92.8,168.871-126.115,54.528-29.282,108.705-67.182,169.027-86.508,112.013-35.9,232.145-62.6,348.072-82.2,78.016-12.865,211.369-36.864,246.556-114.909,4.129-20.743,205.582-4.118,199.021-23.939" transform="translate(-8.307 -395.613)" fill="#00a5f7"/></g><g transform="translate(357.997 577.111)" clip-path="url(#c)"><path d="M-339.382,50.937S-9.764,10.06,363.733,11.977C427.142,9.931,679.648,8.792,865.1,23.1c194.57,16.7,402.854,26.148,717.021,27.837,301.6-11.23,316.92-47.085,574.813-47.085S2613.671,52.1,2613.671,52.1V228.055L2.549,361.716Z" transform="translate(10)" fill="#f8f1d7" fill-rule="evenodd"/><path d="M2320.792,89.156c-43.2-5.917-110.06-11.834-157.562-14.162a868.466,868.466,0,0,0-114.96,8.736c-78.89,11.011-156.17,31.2-232.52,53.514-156.11,45.63-311.27,100.339-475.05,109.338-176.89,9.718-352.044-25.757-524.713-59.435-163.247-31.84-329.013-62.506-496.115-53.827-84.061-1.705-436.539-8.57-570.168,6.723-29.251,10.531,49.67,133.506,35.635,162.879-14.044,29.389,154.95,7.546,160.355,38.6,5.488,31.536,70.677,51.092,86.3,79.422,15.839,28.729,41.623,45.134,73.6,51.06,39.856,7.387,81.819,7.235,122.2,9.612q66.208,3.9,132.464,6.9c179.855,8.268,359.871,12.727,539.833,17.97q270.692,7.886,541.371,15.794c178.85,5.228,357.99,11.194,536.81,1.666,34.3-1.828,70.72-2.973,102.14-18.472s49.4-45.169,62.49-76.455c31.22-74.59,459.15-78.931,469.61-158.988,4.07-31.226,40.237-125.261,0-130C2527.894,126.434,2389.432,98.623,2320.792,89.156Z" transform="translate(10 13)" fill="#f2debc" fill-rule="evenodd"/></g></g></svg>